ply
format ascii 1.0
comment Created by Blender 2.79 (sub 0) - www.blender.org, source file: ''
element vertex 81
property float x
property float y
property float z
element face 64
property list uchar uint vertex_indices
end_header
1.817033 1.817033 0.000000
2.422710 1.817033 0.000000
2.422710 2.422710 0.000000
1.817033 2.422710 0.000000
-0.605678 1.817033 0.000000
0.000000 1.817033 0.000000
0.000000 2.422710 0.000000
-0.605678 2.422710 0.000000
-0.605678 -0.605678 0.000000
0.000000 -0.605678 0.000000
0.000000 0.000000 0.000000
-0.605678 0.000000 0.000000
1.817033 -0.605678 0.000000
2.422710 -0.605678 0.000000
2.422710 0.000000 0.000000
1.817033 0.000000 0.000000
0.605678 -0.605678 0.000000
1.211355 -0.605678 0.000000
1.211355 0.000000 0.000000
0.605678 0.000000 0.000000
0.605678 -1.817033 0.000000
1.211355 -1.817033 0.000000
1.211355 -1.211355 0.000000
0.605678 -1.211355 0.000000
1.817033 -1.817033 0.000000
2.422710 -1.817033 0.000000
2.422710 -1.211355 0.000000
1.817033 -1.211355 0.000000
-1.817033 -0.605678 0.000000
-1.211355 -0.605678 0.000000
-1.211355 0.000000 0.000000
-1.817033 0.000000 0.000000
-1.817033 -1.817033 0.000000
-1.211355 -1.817033 0.000000
-1.211355 -1.211355 0.000000
-1.817033 -1.211355 0.000000
-0.605678 -1.817033 0.000000
0.000000 -1.817033 0.000000
0.000000 -1.211355 0.000000
-0.605678 -1.211355 0.000000
-1.817033 1.817033 0.000000
-1.211355 1.817033 0.000000
-1.211355 2.422710 0.000000
-1.817033 2.422710 0.000000
-1.817033 0.605678 0.000000
-1.211355 0.605678 0.000000
-1.211355 1.211355 0.000000
-1.817033 1.211355 0.000000
-0.605678 0.605678 0.000000
0.000000 0.605678 0.000000
0.000000 1.211355 0.000000
-0.605678 1.211355 0.000000
0.605678 1.817033 0.000000
1.211355 1.817033 0.000000
1.211355 2.422710 0.000000
0.605678 2.422710 0.000000
0.605678 0.605678 0.000000
1.211355 0.605678 0.000000
1.211355 1.211355 0.000000
0.605678 1.211355 0.000000
1.817033 0.605678 0.000000
2.422710 0.605678 0.000000
2.422710 1.211355 0.000000
1.817033 1.211355 0.000000
-2.422710 0.605678 0.000000
-2.422710 1.211355 0.000000
-2.422710 0.000000 0.000000
-2.422710 1.817033 0.000000
-2.422710 2.422710 0.000000
-1.211355 -2.422710 0.000000
-0.605678 -2.422710 0.000000
0.000000 -2.422710 0.000000
-2.422710 -1.817033 0.000000
-2.422710 -1.211355 0.000000
-2.422710 -2.422710 0.000000
-1.817033 -2.422710 0.000000
-2.422710 -0.605678 0.000000
1.211355 -2.422710 0.000000
1.817033 -2.422710 0.000000
2.422710 -2.422710 0.000000
0.605678 -2.422710 0.000000
4 0 1 2 3
4 4 5 6 7
4 8 9 10 11
4 12 13 14 15
4 16 17 18 19
4 20 21 22 23
4 24 25 26 27
4 28 29 30 31
4 32 33 34 35
4 36 37 38 39
4 40 41 42 43
4 44 45 46 47
4 48 49 50 51
4 52 53 54 55
4 56 57 58 59
4 60 61 62 63
4 57 60 63 58
4 18 15 60 57
4 15 14 61 60
4 49 56 59 50
4 10 19 56 49
4 19 18 57 56
4 5 52 55 6
4 50 59 52 5
4 59 58 53 52
4 45 48 51 46
4 30 11 48 45
4 11 10 49 48
4 64 44 47 65
4 66 31 44 64
4 31 30 45 44
4 67 40 43 68
4 65 47 40 67
4 47 46 41 40
4 33 36 39 34
4 69 70 36 33
4 70 71 37 36
4 72 32 35 73
4 74 75 32 72
4 75 69 33 32
4 76 28 31 66
4 73 35 28 76
4 35 34 29 28
4 21 24 27 22
4 77 78 24 21
4 78 79 25 24
4 37 20 23 38
4 71 80 20 37
4 80 77 21 20
4 9 16 19 10
4 38 23 16 9
4 23 22 17 16
4 17 12 15 18
4 22 27 12 17
4 27 26 13 12
4 29 8 11 30
4 34 39 8 29
4 39 38 9 8
4 41 4 7 42
4 46 51 4 41
4 51 50 5 4
4 53 0 3 54
4 58 63 0 53
4 63 62 1 0
