ply
format ascii 1.0
comment Created by Blender 2.79 (sub 0) - www.blender.org, source file: ''
element vertex 9
property float x
property float y
property float z
element face 4
property list uchar uint vertex_indices
end_header
0.000000 0.000000 0.000000
1.000000 0.000000 0.000000
1.000000 1.000000 0.000000
0.000000 1.000000 0.000000
-1.000000 0.000000 0.000000
-1.000000 1.000000 0.000000
-1.000000 -1.000000 0.000000
0.000000 -1.000000 0.000000
1.000000 -1.000000 0.000000
4 0 1 2 3
4 4 0 3 5
4 6 7 0 4
4 7 8 1 0
