ply
format ascii 1.0
comment Created by Blender 2.79 (sub 0) - www.blender.org, source file: 'planex.blend'
element vertex 45
property float x
property float y
property float z
element face 64
property list uchar uint vertex_indices
end_header
-0.455405 -6.653718 1.456490
-0.350065 -5.775953 1.288264
-0.350065 -6.669850 1.294788
-0.529373 -6.626722 1.445391
-0.471922 -5.654794 1.490399
-0.500224 -3.943167 1.548500
-0.350065 -2.617377 1.265209
-0.350065 -4.249650 1.277123
-0.526769 -2.337732 1.602997
-0.350065 -0.414826 1.249133
-0.561592 -0.231702 1.674486
-0.350065 0.750920 1.240624
-0.582375 1.025225 1.717153
-0.350065 2.349892 1.228953
-1.560794 -3.923331 1.506034
-1.343704 -2.444576 1.571249
-1.870656 -0.286790 1.625939
-2.020810 1.154129 1.671523
-3.452044 2.549547 1.693704
-2.066632 2.650367 1.790191
-2.931211 -0.331420 1.586608
-3.473055 1.237433 1.629582
-0.957783 -5.503845 1.470580
-0.244725 -6.653718 1.456490
-0.228208 -5.654794 1.490399
-0.170757 -6.626722 1.445391
-0.199906 -3.943167 1.548500
-0.173361 -2.337732 1.602997
-0.138538 -0.231702 1.674486
-0.117755 1.025225 1.717153
0.643574 -2.444576 1.571249
1.170526 -0.286790 1.625939
1.725779 -1.655833 1.556898
1.366502 2.650367 1.790191
2.751914 2.549547 1.693704
1.320679 1.154129 1.671523
2.231081 -0.331420 1.586608
0.257653 -5.503845 1.470580
-0.609614 2.672607 1.773073
-2.425909 -1.655833 1.556898
-3.678820 2.476807 2.199944
-0.090516 2.672607 1.773073
0.860664 -3.923331 1.506034
2.978690 2.476807 2.199944
2.772924 1.237433 1.629582
3 0 1 2
3 3 4 0
3 5 6 7
3 8 9 6
3 10 11 9
3 12 13 11
3 14 15 5
3 15 16 10
3 16 12 10
3 17 18 19
3 17 20 21
3 4 7 1
3 22 5 4
3 23 1 24
3 24 25 23
3 6 26 7
3 9 27 6
3 11 28 9
3 13 29 11
3 27 30 26
3 31 32 30
3 29 31 28
3 33 34 35
3 35 36 31
3 7 24 1
3 26 37 24
3 0 4 1
3 3 22 4
3 5 8 6
3 8 10 9
3 10 12 11
3 12 38 13
3 8 5 15
3 14 39 15
3 10 8 15
3 15 39 16
3 20 16 39
3 16 17 12
3 38 12 17
3 17 21 18
3 40 18 21
3 19 38 17
3 17 16 20
3 4 5 7
3 22 14 5
3 23 2 1
3 24 37 25
3 6 27 26
3 9 28 27
3 11 29 28
3 13 41 29
3 42 26 30
3 30 32 42
3 30 27 28
3 31 36 32
3 30 28 31
3 29 35 31
3 35 29 41
3 41 33 35
3 34 43 44
3 44 35 34
3 35 44 36
3 7 26 24
3 26 42 37
