ply
format ascii 1.0
comment Created by Blender 2.79 (sub 0) - www.blender.org, source file: 'plane.blend'
element vertex 90
property float x
property float y
property float z
element face 176
property list uchar uint vertex_indices
end_header
-0.426993 -6.654809 1.501768
-0.350065 -5.386051 1.330688
-0.454499 -4.991243 1.558238
-0.500961 -6.627814 1.490669
-0.455405 -6.653718 1.456490
-0.350065 -5.464127 1.285987
-0.350065 -6.669850 1.294788
-0.350065 -2.618468 1.310487
-0.471811 -3.944258 1.593778
-0.350065 -4.250741 1.322401
-0.350065 -0.415917 1.294411
-0.498357 -2.338823 1.648275
-0.350065 0.749829 1.285902
-0.533179 -0.232793 1.719764
-0.350065 2.348801 1.274231
-0.553962 1.024134 1.762431
-1.315292 -2.445668 1.616528
-1.880224 -0.289479 1.669809
-2.397497 -1.656925 1.602176
-2.022418 1.155729 1.715849
-2.063664 2.648313 1.831443
-3.400118 2.555070 1.744538
-0.529373 -6.626722 1.445391
-0.481491 -5.076102 1.510043
-0.500224 -3.943167 1.548500
-0.350065 -2.617377 1.265209
-0.350065 -4.249650 1.277123
-0.526769 -2.337732 1.602997
-0.350065 -0.414826 1.249133
-0.561592 -0.231702 1.674486
-0.350065 0.750920 1.240624
-0.582375 1.025225 1.717153
-0.350065 2.349892 1.228953
-1.560794 -3.923331 1.506034
-1.343704 -2.444576 1.571249
-1.870656 -0.286790 1.625939
-2.020810 1.154129 1.671523
-3.452044 2.549547 1.693704
-2.066632 2.650367 1.790191
-1.532382 -3.924422 1.551312
-0.609614 2.672607 1.773073
-0.581201 2.671516 1.818352
-1.094145 -5.146436 1.478597
-3.678820 2.476807 2.199944
-3.650407 2.475716 2.245222
-3.444642 1.236342 1.674860
-3.473055 1.237433 1.629582
-2.931211 -0.331420 1.586608
-2.902798 -0.332511 1.631886
-0.350065 -6.670942 1.340066
-2.425909 -1.655833 1.556898
-1.097533 -5.064176 1.525745
-0.273138 -6.654809 1.501768
-0.199170 -6.627814 1.490669
-0.245631 -4.991243 1.558238
-0.244725 -6.653718 1.456490
-0.218639 -5.076102 1.510043
-0.228319 -3.944258 1.593778
-0.201774 -2.338823 1.648275
-0.166951 -0.232793 1.719764
-0.146168 1.024134 1.762431
0.832251 -3.924422 1.551312
0.615161 -2.445668 1.616528
1.697366 -1.656925 1.602176
2.202668 -0.332511 1.631886
1.180094 -0.289479 1.669809
1.363534 2.648313 1.831443
-0.118929 2.671516 1.818352
1.322288 1.155729 1.715849
-0.170757 -6.626722 1.445391
-0.199906 -3.943167 1.548500
-0.173361 -2.337732 1.602997
-0.138538 -0.231702 1.674486
-0.117755 1.025225 1.717153
0.643574 -2.444576 1.571249
1.170526 -0.286790 1.625939
1.725779 -1.655833 1.556898
1.366502 2.650367 1.790191
2.751914 2.549547 1.693704
1.320679 1.154129 1.671523
0.860664 -3.923331 1.506034
-0.090516 2.672607 1.773073
0.394014 -5.146436 1.478597
0.397403 -5.064176 1.525745
2.978690 2.476807 2.199944
2.699988 2.555070 1.744538
2.950277 2.475716 2.245222
2.744512 1.236342 1.674860
2.231081 -0.331420 1.586608
2.772924 1.237433 1.629582
3 0 1 2
3 2 3 0
3 4 5 6
3 7 8 9
3 10 11 7
3 12 13 10
3 14 15 12
3 11 16 8
3 17 18 16
3 15 17 13
3 19 20 21
3 22 23 4
3 24 25 26
3 27 28 25
3 29 30 28
3 31 32 30
3 33 34 24
3 34 35 29
3 35 31 29
3 36 37 38
3 18 33 39
3 14 40 41
3 3 42 22
3 21 43 44
3 3 4 0
3 45 43 46
3 45 47 48
3 49 4 6
3 48 50 18
3 21 38 37
3 20 40 38
3 19 48 17
3 36 47 46
3 42 24 23
3 51 8 39
3 51 33 42
3 23 26 5
3 2 9 8
3 52 1 49
3 53 54 52
3 55 5 56
3 57 7 9
3 58 10 7
3 59 12 10
3 60 14 12
3 61 62 57
3 63 64 65
3 65 60 59
3 66 67 68
3 56 69 55
3 25 70 26
3 28 71 25
3 30 72 28
3 32 73 30
3 71 74 70
3 75 76 74
3 73 75 72
3 77 78 79
3 80 63 61
3 81 14 67
3 53 82 83
3 84 85 86
3 55 53 52
3 87 84 86
3 88 87 64
3 49 55 52
3 76 64 63
3 77 85 78
3 81 66 77
3 64 68 65
3 79 88 75
3 70 82 56
3 83 57 54
3 80 83 82
3 26 56 5
3 54 9 1
3 0 49 1
3 2 51 3
3 4 23 5
3 7 11 8
3 10 13 11
3 12 15 13
3 14 41 15
3 39 8 16
3 16 18 39
3 16 11 13
3 13 17 16
3 48 18 17
3 15 19 17
3 21 44 45
3 19 15 41
3 21 45 19
3 41 20 19
3 22 42 23
3 24 27 25
3 27 29 28
3 29 31 30
3 31 40 32
3 27 24 34
3 33 50 34
3 29 27 34
3 34 50 35
3 47 35 50
3 35 36 31
3 40 31 36
3 36 46 37
3 43 37 46
3 38 40 36
3 18 50 33
3 14 32 40
3 3 51 42
3 21 37 43
3 3 22 4
3 45 44 43
3 45 46 47
3 49 0 4
3 48 47 50
3 21 20 38
3 20 41 40
3 19 45 48
3 36 35 47
3 42 33 24
3 51 2 8
3 51 39 33
3 23 24 26
3 2 1 9
3 52 54 1
3 53 83 54
3 55 6 5
3 57 58 7
3 58 59 10
3 59 60 12
3 60 67 14
3 58 57 62
3 61 63 62
3 59 58 62
3 62 63 65
3 65 59 62
3 65 68 60
3 87 86 85
3 85 66 68
3 67 60 68
3 68 87 85
3 56 82 69
3 25 71 70
3 28 72 71
3 30 73 72
3 32 81 73
3 80 70 74
3 74 76 80
3 74 71 72
3 75 88 76
3 74 72 75
3 73 79 75
3 79 73 81
3 81 77 79
3 78 84 89
3 89 79 78
3 80 76 63
3 81 32 14
3 53 69 82
3 84 78 85
3 55 69 53
3 87 89 84
3 88 89 87
3 49 6 55
3 76 88 64
3 77 66 85
3 81 67 66
3 64 87 68
3 79 89 88
3 70 80 82
3 83 61 57
3 80 61 83
3 26 70 56
3 54 57 9
