ply
format ascii 1.0
comment Created by Blender 2.79 (sub 0) - www.blender.org, source file: ''
element vertex 93
property float x
property float y
property float z
element face 182
property list uchar uint vertex_indices
end_header
-0.426993 -6.654809 1.501768
-0.350065 -4.250741 1.322401
-0.471811 -3.944258 1.593778
-0.500961 -6.627814 1.490669
-0.455405 -6.653718 1.456490
-0.350065 -4.249650 1.277123
-0.350065 -6.669850 1.294788
-0.350065 -2.618468 1.310487
-0.350065 -0.415917 1.294411
-0.498357 -2.338823 1.648275
-0.350065 0.749829 1.285902
-0.533179 -0.232793 1.719764
-0.350065 2.061974 1.276325
-0.553962 1.024134 1.762431
-1.315292 -2.445668 1.616528
-2.397497 -1.656925 1.602176
-2.902798 -0.332511 1.631886
-1.216935 1.953608 1.771738
-2.488586 1.948830 1.727895
-0.529373 -6.626722 1.445391
-0.500224 -3.943167 1.548500
-0.350065 -2.617377 1.265209
-0.526769 -2.337732 1.602997
-0.350065 -0.414826 1.249133
-0.561592 -0.231702 1.674486
-0.350065 0.750920 1.240624
-0.582375 1.025225 1.717153
-0.350065 2.349892 1.228953
-1.560794 -3.923331 1.506034
-1.343704 -2.444576 1.571249
-2.425909 -1.655833 1.556898
-2.931211 -0.331420 1.586608
-3.792995 1.927348 1.637276
-2.876678 2.653848 1.694557
-3.550284 1.291192 1.623006
-1.532382 -3.924422 1.551312
-0.350065 2.348801 1.274231
-0.609614 2.672607 1.773073
-0.581201 2.671516 1.818352
-4.038007 2.642911 1.698631
-4.066420 2.644002 1.653352
-3.761529 1.918253 1.682375
-3.521871 1.290101 1.668284
-0.350065 -6.670942 1.340066
-0.569191 1.945133 1.793694
-2.063747 2.659248 1.767006
-1.937492 2.184723 1.754965
-2.879642 2.972072 2.062770
-2.066710 2.977473 2.135218
-1.978868 2.979526 2.093966
-2.846556 2.971020 2.108210
-2.843593 2.652795 1.739997
-1.975905 2.661302 1.725754
-0.273138 -6.654809 1.501768
-0.199170 -6.627814 1.490669
-0.228319 -3.944258 1.593778
-0.244725 -6.653718 1.456490
-0.199906 -3.943167 1.548500
-0.201774 -2.338823 1.648275
-0.166951 -0.232793 1.719764
-0.146168 1.024134 1.762431
0.832251 -3.924422 1.551312
0.615161 -2.445668 1.616528
1.697366 -1.656925 1.602176
2.202668 -0.332511 1.631886
2.821741 1.290101 1.668284
1.788456 1.948830 1.727895
-0.170757 -6.626722 1.445391
-0.173361 -2.337732 1.602997
-0.138538 -0.231702 1.674486
-0.117755 1.025225 1.717153
0.643574 -2.444576 1.571249
1.725779 -1.655833 1.556898
2.231081 -0.331420 1.586608
1.275774 2.661302 1.725754
2.176548 2.653848 1.694557
2.850153 1.291192 1.623006
0.860664 -3.923331 1.506034
-0.090516 2.672607 1.773073
-0.118929 2.671516 1.818352
3.337877 2.642911 1.698631
2.143463 2.652795 1.739997
3.061399 1.918253 1.682375
-0.130939 1.945133 1.793694
1.237361 2.184723 1.754965
3.092865 1.927348 1.637276
2.179512 2.972072 2.062770
1.366580 2.977473 2.135218
2.146426 2.971020 2.108210
1.363617 2.659248 1.767006
1.278738 2.979526 2.093966
0.516804 1.953608 1.771738
3.366290 2.644002 1.653352
3 0 1 2
3 2 3 0
3 4 5 6
3 7 2 1
3 8 9 7
3 10 11 8
3 12 13 10
3 9 14 2
3 11 15 14
3 13 16 11
3 17 18 13
3 19 20 4
3 20 21 5
3 22 23 21
3 24 25 23
3 26 27 25
3 28 29 20
3 30 31 24
3 31 26 24
3 32 33 34
3 15 28 35
3 36 37 38
3 35 19 3
3 39 33 40
3 3 4 0
3 41 34 42
3 42 31 16
3 43 4 6
3 16 30 15
3 44 36 38
3 17 45 46
3 32 39 40
3 47 48 49
3 45 50 51
3 52 38 37
3 51 46 45
3 52 47 49
3 45 49 48
3 51 47 33
3 53 1 43
3 54 55 53
3 56 5 57
3 55 7 1
3 58 8 7
3 59 10 8
3 60 12 10
3 61 62 55
3 63 64 59
3 64 60 59
3 65 66 60
3 57 67 56
3 21 57 5
3 23 68 21
3 25 69 23
3 27 70 25
3 68 71 57
3 69 72 71
3 70 73 69
3 74 75 76
3 77 63 61
3 78 36 79
3 67 61 54
3 80 75 81
3 56 54 53
3 76 82 65
3 73 65 64
3 43 56 53
3 72 64 63
3 83 36 12
3 81 84 66
3 85 80 82
3 86 87 88
3 88 89 81
3 74 79 89
3 81 89 84
3 74 86 75
3 89 90 74
3 86 81 75
3 0 43 1
3 2 35 3
3 4 20 5
3 7 9 2
3 8 11 9
3 10 13 11
3 12 44 13
3 35 2 14
3 14 15 35
3 14 9 11
3 11 16 15
3 13 42 16
3 42 13 18
3 44 17 13
3 18 41 42
3 19 28 20
3 20 22 21
3 22 24 23
3 24 26 25
3 26 37 27
3 22 20 29
3 28 30 29
3 24 22 29
3 29 30 24
3 31 34 26
3 37 26 52
3 32 40 33
3 26 34 52
3 33 52 34
3 15 30 28
3 36 27 37
3 35 28 19
3 39 51 33
3 3 19 4
3 41 32 34
3 42 34 31
3 43 0 4
3 16 31 30
3 44 12 36
3 39 41 51
3 17 44 38
3 41 18 51
3 46 51 18
3 38 45 17
3 46 18 17
3 32 41 39
3 47 50 48
3 45 48 50
3 52 45 38
3 52 33 47
3 45 52 49
3 51 50 47
3 53 55 1
3 54 61 55
3 56 6 5
3 55 58 7
3 58 59 8
3 59 60 10
3 60 83 12
3 58 55 62
3 61 63 62
3 59 58 62
3 62 63 59
3 64 65 60
3 83 60 91
3 65 82 66
3 66 91 60
3 57 77 67
3 21 68 57
3 23 69 68
3 25 70 69
3 27 78 70
3 77 57 71
3 71 72 77
3 71 68 69
3 69 73 72
3 70 76 73
3 76 70 74
3 78 74 70
3 75 92 85
3 85 76 75
3 77 72 63
3 78 27 36
3 67 77 61
3 80 92 75
3 56 67 54
3 76 85 82
3 73 76 65
3 43 6 56
3 72 73 64
3 83 79 36
3 66 82 81
3 80 81 82
3 84 89 91
3 79 83 91
3 91 66 84
3 89 79 91
3 85 92 80
3 86 90 87
3 88 87 89
3 74 78 79
3 74 90 86
3 89 87 90
3 86 88 81
