ply
format ascii 1.0
comment Created by Blender 2.79 (sub 0) - www.blender.org, source file: 'planex.blend'
element vertex 72
property float x
property float y
property float z
element face 108
property list uchar uint vertex_indices
end_header
-0.455405 -6.653718 1.456490
-0.350065 -6.419166 1.292958
-0.350065 -6.669850 1.294788
-0.529373 -6.626722 1.445391
-0.461514 -6.284287 1.469031
-0.500224 -3.943167 1.548500
-0.350065 -3.372156 1.270718
-0.350065 -4.249650 1.277123
-0.526769 -2.337732 1.602997
-0.350065 -1.258630 1.255291
-0.350065 -2.617377 1.265209
-0.561592 -0.231702 1.674486
-0.350065 0.750920 1.240624
-0.350065 -0.414826 1.249133
-0.582375 1.025225 1.717153
-0.350065 2.349892 1.228953
-1.560794 -3.923331 1.506034
-0.512136 -3.222738 1.572955
-2.425909 -1.655833 1.556898
-2.659067 -1.044719 1.570607
-1.452864 -1.241331 1.608330
-1.870656 -0.286790 1.625939
-2.020810 1.154129 1.671523
-3.452044 2.549547 1.693704
-2.066632 2.650367 1.790191
-2.931211 -0.331420 1.586608
-3.473055 1.237433 1.629582
-0.471922 -5.654794 1.490399
-0.350065 -4.824325 1.281318
-0.350065 -5.775953 1.288264
-0.957783 -5.503845 1.470580
-0.488125 -4.674864 1.523663
-1.897456 -3.040927 1.525828
-1.343704 -2.444576 1.571249
-0.546119 -1.167482 1.642721
-0.466097 -6.007118 1.478439
-0.350065 -6.158587 1.291056
-0.789930 -5.943795 1.460711
-1.284755 -4.646839 1.489804
-0.657601 -6.290632 1.452930
-0.244725 -6.653718 1.456490
-0.238616 -6.284287 1.469031
-0.170757 -6.626722 1.445391
-0.199906 -3.943167 1.548500
-0.173361 -2.337732 1.602997
-0.138538 -0.231702 1.674486
-0.117755 1.025225 1.717153
-0.187994 -3.222738 1.572955
0.860664 -3.923331 1.506034
0.752734 -1.241331 1.608330
1.725779 -1.655833 1.556898
0.643574 -2.444576 1.571249
1.170526 -0.286790 1.625939
1.366502 2.650367 1.790191
2.751914 2.549547 1.693704
1.320679 1.154129 1.671523
2.231081 -0.331420 1.586608
-0.228208 -5.654794 1.490399
-0.212005 -4.674864 1.523663
0.257653 -5.503845 1.470580
-0.154011 -1.167482 1.642721
-0.234033 -6.007118 1.478439
1.958937 -1.044719 1.570607
0.089799 -5.943795 1.460711
0.584625 -4.646839 1.489804
-0.042529 -6.290632 1.452930
-0.609614 2.672607 1.773073
-3.678820 2.476807 2.199944
-0.090516 2.672607 1.773073
1.197326 -3.040927 1.525828
2.978690 2.476807 2.199944
2.772924 1.237433 1.629582
3 0 1 2
3 3 4 0
3 5 6 7
3 8 9 10
3 11 12 13
3 14 15 12
3 16 17 5
3 18 19 20
3 21 14 11
3 22 23 24
3 22 25 26
3 27 28 29
3 30 31 27
3 17 10 6
3 32 33 17
3 34 13 9
3 35 29 36
3 19 25 21
3 31 7 28
3 37 27 35
3 38 5 31
3 4 36 1
3 39 35 4
3 40 1 41
3 41 42 40
3 6 43 7
3 9 44 10
3 12 45 13
3 15 46 12
3 47 48 43
3 49 50 51
3 46 52 45
3 53 54 55
3 55 56 52
3 28 57 29
3 58 59 57
3 10 47 6
3 44 51 47
3 13 60 9
3 29 61 36
3 52 62 49
3 7 58 28
3 57 63 61
3 43 64 58
3 36 41 1
3 61 65 41
3 0 4 1
3 3 39 4
3 5 17 6
3 8 34 9
3 11 14 12
3 14 66 15
3 16 32 17
3 34 8 20
3 33 18 20
3 20 8 33
3 21 22 14
3 66 14 22
3 22 26 23
3 67 23 26
3 24 66 22
3 22 21 25
3 27 31 28
3 30 38 31
3 17 8 10
3 8 17 33
3 32 18 33
3 34 11 13
3 35 27 29
3 11 34 20
3 20 19 21
3 21 11 20
3 31 5 7
3 37 30 27
3 38 16 5
3 4 35 36
3 39 37 35
3 40 2 1
3 41 65 42
3 6 47 43
3 9 60 44
3 12 46 45
3 15 68 46
3 47 69 48
3 51 44 49
3 49 62 50
3 44 60 49
3 46 55 52
3 55 46 68
3 68 53 55
3 54 70 71
3 71 55 54
3 55 71 56
3 28 58 57
3 58 64 59
3 10 44 47
3 69 47 51
3 51 50 69
3 13 45 60
3 29 57 61
3 49 60 45
3 45 52 49
3 56 62 52
3 7 43 58
3 57 59 63
3 43 48 64
3 36 61 41
3 61 63 65
