ply
format ascii 1.0
comment Created by Blender 2.79 (sub 0) - www.blender.org, source file: 'untitled.blend'
element vertex 80
property float x
property float y
property float z
element face 156
property list uchar uint vertex_indices
end_header
-0.426993 -6.654809 1.501768
-0.350065 -4.250741 1.322401
-0.471811 -3.944258 1.593778
-0.500961 -6.627814 1.490669
-0.455405 -6.653718 1.456490
-0.350065 -4.249650 1.277123
-0.350065 -6.669850 1.294788
-0.350065 -2.618468 1.310487
-0.350065 -0.415917 1.294411
-0.498357 -2.338823 1.648275
-0.350065 0.749829 1.285902
-0.533179 -0.232793 1.719764
-0.350065 2.348801 1.274231
-0.553962 1.024134 1.762431
-1.315292 -2.445668 1.616528
-1.880224 -0.289479 1.669809
-2.397497 -1.656925 1.602176
-2.022418 1.155729 1.715849
-2.063664 2.648313 1.831443
-3.400118 2.555070 1.744538
-0.529373 -6.626722 1.445391
-0.500224 -3.943167 1.548500
-0.350065 -2.617377 1.265209
-0.526769 -2.337732 1.602997
-0.350065 -0.414826 1.249133
-0.561592 -0.231702 1.674486
-0.350065 0.750920 1.240624
-0.582375 1.025225 1.717153
-0.350065 2.349892 1.228953
-1.560794 -3.923331 1.506034
-1.343704 -2.444576 1.571249
-1.870656 -0.286790 1.625939
-2.020810 1.154129 1.671523
-3.452044 2.549547 1.693704
-2.066632 2.650367 1.790191
-1.532382 -3.924422 1.551312
-0.609614 2.672607 1.773073
-0.581201 2.671516 1.818352
-3.678820 2.476807 2.199944
-3.650407 2.475716 2.245222
-3.444642 1.236342 1.674860
-3.473055 1.237433 1.629582
-2.931211 -0.331420 1.586608
-2.902798 -0.332511 1.631886
-0.350065 -6.670942 1.340066
-2.425909 -1.655833 1.556898
-0.273138 -6.654809 1.501768
-0.199170 -6.627814 1.490669
-0.228319 -3.944258 1.593778
-0.244725 -6.653718 1.456490
-0.199906 -3.943167 1.548500
-0.201774 -2.338823 1.648275
-0.166951 -0.232793 1.719764
-0.146168 1.024134 1.762431
0.832251 -3.924422 1.551312
0.615161 -2.445668 1.616528
1.697366 -1.656925 1.602176
2.202668 -0.332511 1.631886
1.180094 -0.289479 1.669809
1.363534 2.648313 1.831443
-0.118929 2.671516 1.818352
1.322288 1.155729 1.715849
-0.170757 -6.626722 1.445391
-0.173361 -2.337732 1.602997
-0.138538 -0.231702 1.674486
-0.117755 1.025225 1.717153
0.643574 -2.444576 1.571249
1.170526 -0.286790 1.625939
1.725779 -1.655833 1.556898
1.366502 2.650367 1.790191
2.751914 2.549547 1.693704
1.320679 1.154129 1.671523
0.860664 -3.923331 1.506034
-0.090516 2.672607 1.773073
2.978690 2.476807 2.199944
2.699988 2.555070 1.744538
2.950277 2.475716 2.245222
2.744512 1.236342 1.674860
2.231081 -0.331420 1.586608
2.772924 1.237433 1.629582
3 0 1 2
3 2 3 0
3 4 5 6
3 7 2 1
3 8 9 7
3 10 11 8
3 12 13 10
3 9 14 2
3 15 16 14
3 13 15 11
3 17 18 19
3 20 21 4
3 21 22 5
3 23 24 22
3 25 26 24
3 27 28 26
3 29 30 21
3 30 31 25
3 31 27 25
3 32 33 34
3 16 29 35
3 12 36 37
3 35 20 3
3 19 38 39
3 3 4 0
3 40 38 41
3 40 42 43
3 44 4 6
3 43 45 16
3 19 34 33
3 18 36 34
3 17 43 15
3 32 42 41
3 46 1 44
3 47 48 46
3 49 5 50
3 48 7 1
3 51 8 7
3 52 10 8
3 53 12 10
3 54 55 48
3 56 57 58
3 58 53 52
3 59 60 61
3 50 62 49
3 22 50 5
3 24 63 22
3 26 64 24
3 28 65 26
3 63 66 50
3 67 68 66
3 65 67 64
3 69 70 71
3 72 56 54
3 73 12 60
3 62 54 47
3 74 75 76
3 49 47 46
3 77 74 76
3 78 77 57
3 44 49 46
3 68 57 56
3 69 75 70
3 73 59 69
3 57 61 58
3 71 78 67
3 0 44 1
3 2 35 3
3 4 21 5
3 7 9 2
3 8 11 9
3 10 13 11
3 12 37 13
3 35 2 14
3 14 16 35
3 14 9 11
3 11 15 14
3 43 16 15
3 13 17 15
3 19 39 40
3 17 13 37
3 19 40 17
3 37 18 17
3 20 29 21
3 21 23 22
3 23 25 24
3 25 27 26
3 27 36 28
3 23 21 30
3 29 45 30
3 25 23 30
3 30 45 31
3 42 31 45
3 31 32 27
3 36 27 32
3 32 41 33
3 38 33 41
3 34 36 32
3 16 45 29
3 12 28 36
3 35 29 20
3 19 33 38
3 3 20 4
3 40 39 38
3 40 41 42
3 44 0 4
3 43 42 45
3 19 18 34
3 18 37 36
3 17 40 43
3 32 31 42
3 46 48 1
3 47 54 48
3 49 6 5
3 48 51 7
3 51 52 8
3 52 53 10
3 53 60 12
3 51 48 55
3 54 56 55
3 52 51 55
3 55 56 58
3 58 52 55
3 58 61 53
3 77 76 75
3 75 59 61
3 60 53 61
3 61 77 75
3 50 72 62
3 22 63 50
3 24 64 63
3 26 65 64
3 28 73 65
3 72 50 66
3 66 68 72
3 66 63 64
3 67 78 68
3 66 64 67
3 65 71 67
3 71 65 73
3 73 69 71
3 70 74 79
3 79 71 70
3 72 68 56
3 73 28 12
3 62 72 54
3 74 70 75
3 49 62 47
3 77 79 74
3 78 79 77
3 44 6 49
3 68 78 57
3 69 59 75
3 73 60 59
3 57 77 61
3 71 79 78
