ply
format ascii 1.0
comment Created by Blender 2.79 (sub 0) - www.blender.org, source file: 'untitled.blend'
element vertex 80
property float x
property float y
property float z
element face 156
property list uchar uint vertex_indices
end_header
-0.429311 -5.550139 2.854132
-0.317699 -3.257093 2.114460
-0.356559 -2.889941 2.329143
-0.502718 -5.519583 2.855042
-0.468161 -5.556202 2.817903
-0.329070 -3.265718 2.071477
-0.407580 -5.615993 2.643951
-0.264749 -1.671980 1.728362
-0.193300 0.466934 1.207371
-0.313468 -1.314329 2.018198
-0.155483 1.598999 0.931625
-0.256942 0.752578 1.610295
-0.103614 3.151772 0.553404
-0.223205 1.986156 1.366849
-1.115211 -1.351345 2.206996
-1.574237 0.808279 1.896422
-2.138421 -0.489597 2.269608
-1.650617 2.236667 1.641787
-1.610217 3.716910 1.417915
-2.891988 3.746062 1.787922
-0.541568 -5.525645 2.818814
-0.395409 -2.896003 2.292915
-0.276120 -1.680606 1.685379
-0.352318 -1.320392 1.981969
-0.204671 0.458308 1.164387
-0.295792 0.746515 1.574066
-0.166855 1.590372 0.888641
-0.262055 1.980093 1.330621
-0.114985 3.143146 0.510421
-1.431136 -2.790115 2.500428
-1.154061 -1.357408 2.170768
-1.575945 0.800646 1.852126
-1.660285 2.225482 1.599938
-2.955204 3.734498 1.753559
-1.623412 3.710349 1.379216
-1.392287 -2.784052 2.536657
-0.217839 3.596873 1.011550
-0.178989 3.602936 1.047779
-2.937557 3.796309 2.267902
-2.868575 3.806647 2.268538
-3.033654 2.434615 1.922719
-3.072504 2.428553 1.886491
-2.613078 0.844500 2.077399
-2.574228 0.850563 2.113628
-0.396209 -5.607368 2.686934
-2.177271 -0.495660 2.233379
-0.280513 -5.564020 2.817553
-0.210848 -5.546809 2.783292
-0.121071 -2.911908 2.271254
-0.264406 -5.575209 2.767814
-0.104963 -2.923097 2.221515
-0.026635 -1.341086 1.947686
0.097248 0.719538 1.523225
0.171184 1.949366 1.269897
0.894616 -2.997381 1.974471
0.751785 -1.525504 1.748035
1.821836 -0.859021 1.296063
2.363413 0.389965 0.899815
1.385483 0.532188 1.168838
1.704323 3.407721 0.603106
0.268088 3.561231 0.937875
1.584143 1.934919 0.846591
-0.194741 -5.557999 2.733554
-0.010527 -1.352275 1.897947
0.113356 0.708349 1.473486
0.187292 1.938177 1.220158
0.767892 -1.536693 1.698297
1.365268 0.526281 1.129092
1.837944 -0.870210 1.246325
1.696869 3.400624 0.562996
3.032789 3.175921 0.281539
1.571364 1.924025 0.805506
0.910724 -3.008570 1.924732
0.284196 3.550042 0.888136
3.264738 3.217741 0.743202
2.995568 3.196854 0.340593
3.206773 3.239922 0.775044
2.952051 1.876252 0.451262
2.379520 0.378776 0.850076
2.968159 1.865062 0.401524
3 0 1 2
3 2 3 0
3 4 5 6
3 7 2 1
3 8 9 7
3 10 11 8
3 12 13 10
3 9 14 2
3 15 16 14
3 13 15 11
3 17 18 19
3 20 21 4
3 21 22 5
3 23 24 22
3 25 26 24
3 27 28 26
3 29 30 21
3 30 31 25
3 31 27 25
3 32 33 34
3 16 29 35
3 12 36 37
3 35 20 3
3 19 38 39
3 3 4 0
3 40 38 41
3 40 42 43
3 44 4 6
3 43 45 16
3 19 34 33
3 18 36 34
3 17 43 15
3 32 42 41
3 46 1 44
3 47 48 46
3 49 5 50
3 48 7 1
3 51 8 7
3 52 10 8
3 53 12 10
3 54 55 48
3 56 57 58
3 58 53 52
3 59 60 61
3 50 62 49
3 22 50 5
3 24 63 22
3 26 64 24
3 28 65 26
3 63 66 50
3 67 68 66
3 65 67 64
3 69 70 71
3 72 56 54
3 73 12 60
3 62 54 47
3 74 75 76
3 49 47 46
3 77 74 76
3 78 77 57
3 44 49 46
3 68 57 56
3 69 75 70
3 73 59 69
3 57 61 58
3 71 78 67
3 0 44 1
3 2 35 3
3 4 21 5
3 7 9 2
3 8 11 9
3 10 13 11
3 12 37 13
3 35 2 14
3 14 16 35
3 14 9 11
3 11 15 14
3 43 16 15
3 13 17 15
3 19 39 40
3 17 13 37
3 19 40 17
3 37 18 17
3 20 29 21
3 21 23 22
3 23 25 24
3 25 27 26
3 27 36 28
3 23 21 30
3 29 45 30
3 25 23 30
3 30 45 31
3 42 31 45
3 31 32 27
3 36 27 32
3 32 41 33
3 38 33 41
3 34 36 32
3 16 45 29
3 12 28 36
3 35 29 20
3 19 33 38
3 3 20 4
3 40 39 38
3 40 41 42
3 44 0 4
3 43 42 45
3 19 18 34
3 18 37 36
3 17 40 43
3 32 31 42
3 46 48 1
3 47 54 48
3 49 6 5
3 48 51 7
3 51 52 8
3 52 53 10
3 53 60 12
3 51 48 55
3 54 56 55
3 52 51 55
3 55 56 58
3 58 52 55
3 58 61 53
3 77 76 75
3 75 59 61
3 60 53 61
3 61 77 75
3 50 72 62
3 22 63 50
3 24 64 63
3 26 65 64
3 28 73 65
3 72 50 66
3 66 68 72
3 66 63 64
3 67 78 68
3 66 64 67
3 65 71 67
3 71 65 73
3 73 69 71
3 70 74 79
3 79 71 70
3 72 68 56
3 73 28 12
3 62 72 54
3 74 70 75
3 49 62 47
3 77 79 74
3 78 79 77
3 44 6 49
3 68 78 57
3 69 59 75
3 73 60 59
3 57 77 61
3 71 79 78
