ply
format ascii 1.0
comment Created by Blender 2.79 (sub 0) - www.blender.org, source file: ''
element vertex 68
property float x
property float y
property float z
element face 128
property list uchar uint vertex_indices
end_header
-0.426993 -6.654809 1.501768
-0.350065 -4.250741 1.322401
-0.471811 -3.944258 1.593778
-0.500961 -6.627814 1.490669
-0.455405 -6.653718 1.456490
-0.350065 -4.249650 1.277123
-0.350065 -6.669850 1.294788
-0.350065 -2.618468 1.310487
-0.350065 -0.415917 1.294411
-0.498357 -2.338823 1.648275
-0.350065 0.749829 1.285902
-0.533179 -0.232793 1.719764
-0.350065 2.348801 1.274231
-0.553962 1.024134 1.762431
-1.315292 -2.445668 1.616528
-2.397497 -1.656925 1.602176
-2.902798 -0.332511 1.631886
-0.581201 2.671516 1.818352
-3.521871 1.290101 1.668284
-0.529373 -6.626722 1.445391
-0.500224 -3.943167 1.548500
-0.350065 -2.617377 1.265209
-0.526769 -2.337732 1.602997
-0.350065 -0.414826 1.249133
-0.561592 -0.231702 1.674486
-0.350065 0.750920 1.240624
-0.582375 1.025225 1.717153
-0.350065 2.349892 1.228953
-1.560794 -3.923331 1.506034
-1.343704 -2.444576 1.571249
-2.425909 -1.655833 1.556898
-2.931211 -0.331420 1.586608
-3.550284 1.291192 1.623006
-0.609614 2.672607 1.773073
-1.532382 -3.924422 1.551312
-4.038007 2.642911 1.698631
-4.066420 2.644002 1.653352
-0.350065 -6.670942 1.340066
-3.969656 2.868018 1.352339
-0.512851 2.896623 1.472060
-0.273138 -6.654809 1.501768
-0.199170 -6.627814 1.490669
-0.228319 -3.944258 1.593778
-0.244725 -6.653718 1.456490
-0.199906 -3.943167 1.548500
-0.201774 -2.338823 1.648275
-0.166951 -0.232793 1.719764
-0.146168 1.024134 1.762431
0.832251 -3.924422 1.551312
0.615161 -2.445668 1.616528
1.697366 -1.656925 1.602176
2.202668 -0.332511 1.631886
2.821741 1.290101 1.668284
-0.118929 2.671516 1.818352
-0.170757 -6.626722 1.445391
-0.173361 -2.337732 1.602997
-0.138538 -0.231702 1.674486
-0.117755 1.025225 1.717153
0.643574 -2.444576 1.571249
1.725779 -1.655833 1.556898
2.231081 -0.331420 1.586608
-0.090516 2.672607 1.773073
2.850153 1.291192 1.623006
0.860664 -3.923331 1.506034
3.337877 2.642911 1.698631
3.269526 2.868018 1.352339
3.366290 2.644002 1.653352
-0.187279 2.896623 1.472060
3 0 1 2
3 2 3 0
3 4 5 6
3 7 2 1
3 8 9 7
3 10 11 8
3 12 13 10
3 9 14 2
3 11 15 14
3 13 16 11
3 17 18 13
3 19 20 4
3 20 21 5
3 22 23 21
3 24 25 23
3 26 27 25
3 28 29 20
3 30 31 24
3 31 26 24
3 32 33 26
3 15 28 34
3 12 33 17
3 34 19 3
3 35 33 36
3 3 4 0
3 35 32 18
3 18 31 16
3 37 4 6
3 16 30 15
3 17 38 39
3 40 1 37
3 41 42 40
3 43 5 44
3 42 7 1
3 45 8 7
3 46 10 8
3 47 12 10
3 48 49 42
3 50 51 46
3 51 47 46
3 52 53 47
3 44 54 43
3 21 44 5
3 23 55 21
3 25 56 23
3 27 57 25
3 55 58 44
3 56 59 58
3 57 60 56
3 61 62 57
3 63 50 48
3 61 12 53
3 54 48 41
3 64 61 53
3 43 41 40
3 62 64 52
3 60 52 51
3 37 43 40
3 59 51 50
3 53 65 64
3 0 37 1
3 2 34 3
3 4 20 5
3 7 9 2
3 8 11 9
3 10 13 11
3 12 17 13
3 34 2 14
3 14 15 34
3 14 9 11
3 11 16 15
3 13 18 16
3 17 35 18
3 19 28 20
3 20 22 21
3 22 24 23
3 24 26 25
3 26 33 27
3 22 20 29
3 28 30 29
3 24 22 29
3 29 30 24
3 31 32 26
3 32 36 33
3 15 30 28
3 12 27 33
3 34 28 19
3 35 17 33
3 3 19 4
3 35 36 32
3 18 32 31
3 37 0 4
3 16 31 30
3 17 35 38
3 40 42 1
3 41 48 42
3 43 6 5
3 42 45 7
3 45 46 8
3 46 47 10
3 47 53 12
3 45 42 49
3 48 50 49
3 46 45 49
3 49 50 46
3 51 52 47
3 52 64 53
3 44 63 54
3 21 55 44
3 23 56 55
3 25 57 56
3 27 61 57
3 63 44 58
3 58 59 63
3 58 55 56
3 56 60 59
3 57 62 60
3 61 66 62
3 63 59 50
3 61 27 12
3 54 63 48
3 64 66 61
3 43 54 41
3 62 66 64
3 60 62 52
3 37 6 43
3 59 60 51
3 53 67 65
