ply
format ascii 1.0
comment Created by Blender 2.79 (sub 0) - www.blender.org, source file: 'planeb.blend'
element vertex 40
property float x
property float y
property float z
element face 57
property list uchar uint vertex_indices
end_header
-0.813520 2.250716 -0.115600
-0.010237 2.255684 -0.254923
-0.012138 0.345503 -0.136541
-0.807472 1.275141 -0.115615
0.007461 1.180915 -0.034046
-0.029378 1.144729 0.011114
-0.032534 0.811528 0.011172
-0.023663 1.237190 -0.012746
-0.023715 1.214520 0.010951
-0.044079 0.233925 0.010321
-0.022530 0.750155 0.010863
-0.311437 0.739197 -0.129438
-0.012600 0.345321 -0.136539
-0.019782 1.070249 -0.181626
-0.025330 1.204439 -0.190057
-0.037065 0.251737 -0.002082
-0.035002 0.250597 -0.058131
-0.030962 0.338113 -0.136464
-0.023549 1.236916 -0.021619
-0.017054 1.027307 0.010729
-0.013532 0.244110 -0.034519
-0.004422 0.354291 -0.136930
-0.017768 1.201192 0.010770
0.306395 0.740540 -0.156051
-0.002558 0.354913 -0.136931
0.002152 1.018923 -0.178000
-0.024490 0.948154 0.010945
-0.043549 0.234554 0.039596
-0.016747 0.405156 -0.140332
-0.017888 1.191438 0.010773
-0.017750 1.200504 0.000813
-0.023076 0.995459 -0.177056
-0.012665 0.242926 -0.043240
-0.017620 0.243574 0.010343
-0.009096 2.255682 0.010943
0.011725 2.255703 -0.254480
-0.001353 1.032306 -0.178901
-0.029876 1.185326 0.011134
0.800028 1.272052 -0.216119
0.798013 2.257302 -0.216184
4 0 1 2 3
3 4 5 6
3 7 8 9
3 4 10 5
3 11 12 13
3 3 2 14
3 15 16 17
3 17 13 18
3 17 18 15
3 19 20 21
3 21 14 22
3 21 22 19
3 23 24 25
3 26 27 28
3 28 25 29
3 28 29 26
3 29 19 30
3 31 5 10
3 10 32 12
3 10 12 31
3 26 29 30
3 20 33 34
3 34 35 21
3 34 21 20
3 36 8 33
3 33 20 24
3 33 24 36
3 16 6 5
3 5 31 17
3 5 17 16
3 19 22 30
3 37 10 4
3 9 8 36
3 36 28 27
3 9 36 27
3 37 14 2
3 2 32 10
3 2 10 37
3 29 25 24
3 24 20 19
3 24 19 29
3 36 24 23
3 28 36 23
3 32 2 1
3 1 34 33
3 1 33 32
3 18 13 12
3 12 32 33
3 33 8 7
3 7 18 12
3 12 33 7
3 13 17 11
3 14 21 38
3 25 28 23
3 31 12 11
4 21 35 39 38
3 17 31 11
