ply
format ascii 1.0
comment Created by Blender 2.79 (sub 0) - www.blender.org, source file: ''
element vertex 27
property float x
property float y
property float z
element face 32
property list uchar uint vertex_indices
end_header
0.987274 -0.819858 1.189574
0.987300 -2.154702 1.194870
0.998514 -2.157054 1.171298
1.009728 -0.844556 1.138129
1.009728 0.470294 1.128532
0.976034 0.517338 1.207851
0.964820 -0.795160 1.241020
0.976517 -2.150767 1.193252
0.707471 -0.795278 1.231485
0.942340 0.564381 1.287170
0.438426 0.560212 1.269717
0.450123 -0.795395 1.221950
0.965734 -2.146832 1.191634
1.032182 -0.819858 1.189574
1.032156 -2.154702 1.194870
1.054636 -0.795160 1.241020
1.043422 0.517338 1.207851
1.020942 -2.157054 1.171298
1.042938 -2.150767 1.193252
1.311984 -0.795278 1.231485
1.053721 -2.146832 1.191634
1.569333 -0.795395 1.221950
1.581030 0.560212 1.269717
1.077115 0.564381 1.287170
1.009728 -2.159405 1.147726
-0.065489 0.556042 1.252265
2.084944 0.556042 1.252265
3 0 1 2
3 2 3 0
3 0 4 5
3 5 6 0
3 7 6 8
3 8 9 10
3 10 11 8
3 8 12 7
3 13 14 15
3 15 16 13
3 13 4 3
3 3 17 13
3 15 18 19
3 19 20 21
3 21 22 19
3 19 23 15
3 0 6 1
3 2 24 3
3 0 3 4
3 5 9 6
3 7 1 6
3 8 6 9
3 10 25 11
3 8 11 12
3 13 17 14
3 15 23 16
3 13 16 4
3 3 24 17
3 15 14 18
3 19 18 20
3 21 26 22
3 19 22 23
