ply
format ascii 1.0
comment Created by Blender 2.79 (sub 0) - www.blender.org, source file: 'planex.blend'
element vertex 40
property float x
property float y
property float z
element face 56
property list uchar uint vertex_indices
end_header
-0.455405 -6.653718 1.456490
-0.350065 -4.249650 1.277123
-0.465520 -6.641820 1.417943
-0.529373 -6.626722 1.445391
-0.500224 -3.943167 1.548500
-0.350065 -2.617377 1.265209
-0.526769 -2.337732 1.602997
-0.350065 -0.414826 1.249133
-0.561592 -0.231702 1.674486
-0.350065 0.750920 1.240624
-0.581922 1.020092 1.750959
-0.271924 2.349588 1.277053
-1.500314 -3.890191 1.541028
-1.343704 -2.444576 1.571249
-2.342445 -1.662287 1.629833
-2.874104 -0.336836 1.650551
-1.800885 -0.298976 1.748562
-3.413633 1.233048 1.683933
-3.455764 2.541921 1.767274
-2.167182 2.153115 1.823126
-1.962599 1.146916 1.753191
-0.244725 -6.653718 1.456490
-0.199906 -3.943167 1.548500
-0.170757 -6.626722 1.445391
-0.173361 -2.337732 1.602997
-0.138538 -0.231702 1.674486
-0.117755 1.025225 1.717153
0.643624 -2.443934 1.596698
1.099219 -0.283490 1.703258
1.607270 -1.661363 1.693995
1.228997 2.143494 1.767673
2.682422 1.228444 1.810580
1.241136 1.149530 1.793989
2.120332 -0.339222 1.759570
-0.599903 2.666568 1.818264
-3.470688 2.474819 2.260047
0.824077 -3.940439 1.592386
-0.090516 2.672607 1.773073
2.630823 2.545300 1.849776
2.786775 2.466195 2.434008
3 0 1 2
3 3 4 0
3 4 5 1
3 6 7 5
3 8 9 7
3 10 11 9
3 12 13 4
3 14 15 16
3 16 10 8
3 17 18 19
3 20 15 17
3 21 1 22
3 22 23 21
3 5 22 1
3 7 24 5
3 9 25 7
3 11 26 9
3 24 27 22
3 28 29 27
3 26 28 25
3 30 31 32
3 32 33 28
3 0 4 1
3 3 12 4
3 4 6 5
3 6 8 7
3 8 10 9
3 10 34 11
3 6 4 13
3 12 14 13
3 8 6 13
3 13 14 16
3 16 8 13
3 16 20 10
3 34 10 19
3 20 17 19
3 35 18 17
3 19 10 20
3 20 16 15
3 21 2 1
3 22 36 23
3 5 24 22
3 7 25 24
3 9 26 25
3 11 37 26
3 36 22 27
3 27 29 36
3 27 24 25
3 25 28 27
3 33 29 28
3 26 32 28
3 32 26 30
3 30 38 31
3 26 37 30
3 39 31 38
3 32 31 33
